<svg width="204" height="204" viewBox="0 0 204 204" fill="none" xmlns="http://www.w3.org/2000/svg">
<circle cx="102" cy="102" r="102" fill="#121212"/>
<path fill-rule="evenodd" clip-rule="evenodd" d="M34.9475 117.659C38.2924 122.588 42.5492 126.84 47.4739 130.185L55.0219 117.113C52.3401 115.157 49.9753 112.793 48.02 110.111L34.9475 117.659Z" fill="#009FE2"/>
<path fill-rule="evenodd" clip-rule="evenodd" d="M27 94.7222C27.4291 100.827 29.0333 106.605 31.5785 111.842L44.6559 104.289C43.3297 101.31 42.4471 98.0964 42.096 94.7222H27Z" fill="#AFCB1F"/>
<path fill-rule="evenodd" clip-rule="evenodd" d="M31.5785 70.8786C29.0333 76.1154 27.4291 81.8934 27 87.9982H42.096C42.452 84.624 43.3345 81.4058 44.6559 78.4315L31.5785 70.8786Z" fill="#FFCB00"/>
<path fill-rule="evenodd" clip-rule="evenodd" d="M47.4739 52.5303C42.5492 55.8704 38.2876 60.132 34.9475 65.0567L48.0249 72.6096C49.9802 69.9278 52.345 67.563 55.0268 65.6077L47.4739 52.5303Z" fill="#ED7F1A"/>
<path fill-rule="evenodd" clip-rule="evenodd" d="M70.4108 44.5825C64.311 45.0164 58.5329 46.6157 53.2961 49.161L60.8442 62.2384C63.8185 60.9121 67.0367 60.0296 70.4108 59.6736V44.5825Z" fill="#E40980"/>
<path fill-rule="evenodd" clip-rule="evenodd" d="M53.2961 133.559C59.4838 136.573 66.432 138.26 73.7801 138.26C84.1514 138.26 93.7327 134.895 101.495 129.195V107.083C96.0146 116.723 85.658 123.222 73.7801 123.222C69.1723 123.222 64.7986 122.242 60.849 120.487L53.2961 133.559ZM105.635 91.3626C105.635 114.031 105.635 136.699 105.635 159.368H120.672V125.426V120.472C121.989 121.408 123.374 122.257 124.817 123.008C129.752 125.587 135.364 127.045 141.317 127.045C161.026 127.045 177 111.071 177 91.3626C177 71.6539 161.021 55.6753 141.317 55.6753C132.121 55.6753 123.739 59.1567 117.41 64.8714C120.321 69.6596 122.472 74.9647 123.686 80.6208C127.314 74.6819 133.852 70.7177 141.317 70.7177C152.722 70.7177 161.962 79.9626 161.962 91.3626C161.962 102.763 152.722 112.008 141.317 112.008C134.574 112.008 128.581 108.775 124.817 103.772C124.412 103.236 124.037 102.68 123.686 102.104C121.774 98.974 120.677 95.2975 120.677 91.3626C120.677 89.9632 120.614 88.5833 120.497 87.218C119.887 80.2405 117.742 73.6969 114.412 67.9286C113.695 66.6853 112.92 65.4809 112.091 64.3107C104.201 53.1642 91.5775 45.6064 77.1397 44.5873V59.6785C89.042 60.9267 98.9938 68.7283 103.319 79.4067C105.518 84.8483 105.635 86.3355 105.635 91.3626Z" fill="white"/>
</svg>
