<svg width="733" height="683" viewBox="0 0 733 683" fill="none" xmlns="http://www.w3.org/2000/svg">
  <path fill-rule="evenodd" clip-rule="evenodd"
    d="M48.1782 434.821C68.0813 464.153 93.4098 489.453 122.713 509.356L167.626 431.571C151.668 419.937 137.597 405.866 125.963 389.908L48.1782 434.821Z"
    fill="#121212" />
  <path fill-rule="evenodd" clip-rule="evenodd"
    d="M0.886475 298.343C3.43964 334.667 12.985 369.048 28.1299 400.208L105.943 355.267C98.0517 337.54 92.8003 318.42 90.7114 298.343H0.886475Z"
    fill="#121212" />
  <path fill-rule="evenodd" clip-rule="evenodd"
    d="M28.1299 156.468C12.985 187.628 3.43964 222.009 0.886475 258.334H90.7114C92.8293 238.256 98.0807 219.108 105.943 201.41L28.1299 156.468Z"
    fill="#121212" />
  <path fill-rule="evenodd" clip-rule="evenodd"
    d="M122.713 47.2916C93.4098 67.1656 68.0523 92.5232 48.1782 121.827L125.992 166.768C137.626 150.811 151.697 136.739 167.655 125.105L122.713 47.2916Z"
    fill="#121212" />
  <path fill-rule="evenodd" clip-rule="evenodd"
    d="M259.191 0C222.896 2.58218 188.515 12.0985 157.355 27.2434L202.267 105.057C219.965 97.1652 239.114 91.9138 259.191 89.7959V0Z"
    fill="#121212" />
  <path fill-rule="evenodd" clip-rule="evenodd"
    d="M157.355 529.433C194.172 547.363 235.516 557.402 279.239 557.402C340.95 557.402 397.961 537.383 444.15 503.466V371.891C411.539 429.25 349.915 467.925 279.239 467.925C251.822 467.925 225.797 462.093 202.296 451.649L157.355 529.433ZM468.782 278.353C468.782 413.235 468.782 548.118 468.782 683H558.259V481.039V451.562C566.093 457.132 574.333 462.18 582.92 466.648C612.282 481.996 645.676 490.671 681.101 490.671C798.372 490.671 893.42 395.624 893.42 278.353C893.42 161.081 798.343 66.0051 681.101 66.0051C626.382 66.0051 576.509 86.7205 538.849 120.724C556.17 149.215 568.965 180.781 576.189 214.437C597.775 179.099 636.682 155.511 681.101 155.511C748.963 155.511 803.943 210.52 803.943 278.353C803.943 346.186 748.963 401.195 681.101 401.195C640.976 401.195 605.319 381.959 582.92 352.191C580.512 349 578.278 345.692 576.189 342.269C564.816 323.642 558.288 301.766 558.288 278.353C558.288 270.026 557.911 261.815 557.215 253.692C553.588 212.174 540.822 173.238 521.006 138.915C516.741 131.517 512.128 124.351 507.196 117.387C460.253 51.0633 385.137 6.0928 299.229 0.0290375V89.8249C370.051 97.2523 429.267 143.673 455.001 207.212C468.086 239.591 468.782 248.44 468.782 278.353Z"
    fill="#121212" />
</svg>