<svg width="73" height="56" viewBox="0 0 73 56" fill="none" xmlns="http://www.w3.org/2000/svg">
<path fill-rule="evenodd" clip-rule="evenodd" d="M3.85095 35.4073C5.47165 37.7959 7.53415 39.856 9.92031 41.4767L13.5775 35.1427C12.2781 34.1954 11.1323 33.0495 10.1849 31.7501L3.85095 35.4073Z" fill="#009FE2"/>
<path fill-rule="evenodd" clip-rule="evenodd" d="M0 24.294C0.207903 27.2519 0.985179 30.0515 2.21842 32.5888L8.55475 28.9293C7.91214 27.4858 7.48452 25.9289 7.31442 24.294H0Z" fill="#AFCB1F"/>
<path fill-rule="evenodd" clip-rule="evenodd" d="M2.21842 12.7412C0.985179 15.2785 0.207903 18.0781 0 21.036H7.31442C7.48688 19.4012 7.9145 17.8419 8.55475 16.4007L2.21842 12.7412Z" fill="#FFCB00"/>
<path fill-rule="evenodd" clip-rule="evenodd" d="M9.92031 3.85094C7.53415 5.46928 5.46929 7.53413 3.85095 9.9203L10.1873 13.5799C11.1347 12.2805 12.2805 11.1346 13.5799 10.1873L9.92031 3.85094Z" fill="#ED7F1A"/>
<path fill-rule="evenodd" clip-rule="evenodd" d="M21.0337 0C18.0782 0.210266 15.2786 0.985178 12.7412 2.21842L16.3984 8.55475C17.8396 7.91214 19.3988 7.48452 21.0337 7.31205V0Z" fill="#E40980"/>
<path fill-rule="evenodd" clip-rule="evenodd" d="M12.7412 43.1116C15.7393 44.5716 19.1059 45.3891 22.6662 45.3891C27.6913 45.3891 32.3337 43.7589 36.0949 40.9971V30.283C33.4394 34.9537 28.4214 38.103 22.6662 38.103C20.4336 38.103 18.3144 37.6281 16.4008 36.7776L12.7412 43.1116ZM38.1007 22.6662C38.1007 33.6496 38.1007 44.6331 38.1007 55.6165H45.3868V39.1709V36.7705C46.0246 37.2241 46.6956 37.6352 47.3949 37.9991C49.7858 39.2488 52.5051 39.9552 55.3897 39.9552C64.9391 39.9552 72.6788 32.2156 72.6788 22.6662C72.6788 13.1168 64.9368 5.37477 55.3897 5.37477C50.934 5.37477 46.8728 7.06162 43.8062 9.83052C45.2167 12.1505 46.2585 14.721 46.8468 17.4615C48.6045 14.5839 51.7727 12.6632 55.3897 12.6632C60.9157 12.6632 65.3927 17.1426 65.3927 22.6662C65.3927 28.1898 60.9157 32.6692 55.3897 32.6692C52.1224 32.6692 49.2188 31.1028 47.3949 28.6788C47.1988 28.419 47.0169 28.1496 46.8468 27.8709C45.9207 26.3541 45.3891 24.5728 45.3891 22.6662C45.3891 21.9881 45.3584 21.3195 45.3017 20.658C45.0064 17.2772 43.9669 14.1067 42.3533 11.3118C42.006 10.7094 41.6303 10.1258 41.2287 9.55883C37.4061 4.15807 31.2895 0.496132 24.294 0.0023613V7.31442C30.061 7.91923 34.8829 11.6993 36.9785 16.8732C38.044 19.5098 38.1007 20.2304 38.1007 22.6662Z" fill="white"/>
</svg>
